<?xml version="1.0" encoding="UTF-8" standalone="no"?>
<!-- Created with Inkscape (http://www.inkscape.org/) -->

<svg
   xmlns:dc="http://purl.org/dc/elements/1.1/"
   xmlns:cc="http://creativecommons.org/ns#"
   xmlns:rdf="http://www.w3.org/1999/02/22-rdf-syntax-ns#"
   xmlns:svg="http://www.w3.org/2000/svg"
   xmlns="http://www.w3.org/2000/svg"
   xmlns:sodipodi="http://sodipodi.sourceforge.net/DTD/sodipodi-0.dtd"
   xmlns:inkscape="http://www.inkscape.org/namespaces/inkscape"
   width="179.53868mm"
   height="179.91667mm"
   viewBox="0 0 179.53868 179.91667"
   version="1.1"
   id="svg8"
   inkscape:version="0.92.3 (2405546, 2018-03-11)"
   sodipodi:docname="logo_v1.svg"
   inkscape:export-filename="/media/alexandre/Donnees/ENSEA_3A/projet/logo/logo_v1.svg.png"
   inkscape:export-xdpi="96"
   inkscape:export-ydpi="96">
  <defs
     id="defs2" />
  <sodipodi:namedview
     id="base"
     pagecolor="#ffffff"
     bordercolor="#666666"
     borderopacity="1.0"
     inkscape:pageopacity="0.0"
     inkscape:pageshadow="2"
     inkscape:zoom="0.7"
     inkscape:cx="293.44783"
     inkscape:cy="293.98289"
     inkscape:document-units="mm"
     inkscape:current-layer="layer1"
     showgrid="false"
     inkscape:window-width="1920"
     inkscape:window-height="996"
     inkscape:window-x="0"
     inkscape:window-y="28"
     inkscape:window-maximized="1" />
  <metadata
     id="metadata5">
    <rdf:RDF>
      <cc:Work
         rdf:about="">
        <dc:format>image/svg+xml</dc:format>
        <dc:type
           rdf:resource="http://purl.org/dc/dcmitype/StillImage" />
        <dc:title></dc:title>
      </cc:Work>
    </rdf:RDF>
  </metadata>
  <g
     inkscape:label="Layer 1"
     inkscape:groupmode="layer"
     id="layer1"
     transform="translate(-18.520782,-41.110115)">
    <path
       style="fill:none;stroke:#000000;stroke-width:0.26458332px;stroke-linecap:butt;stroke-linejoin:miter;stroke-opacity:1"
       d="M 69.925594,134.84821 C 92.604167,73.61607 139.09524,73.61607 139.09524,73.61607"
       id="path3730"
       inkscape:connector-curvature="0" />
    <path
       style="fill:none;stroke:#000000;stroke-width:0.26458332px;stroke-linecap:butt;stroke-linejoin:miter;stroke-opacity:1"
       d="m 139.09524,73.61607 c -51.026788,61.23214 -19.65476,59.34226 -19.65476,59.34226"
       id="path3734"
       inkscape:connector-curvature="0" />
    <path
       style="fill:none;stroke:#000000;stroke-width:0.26509973px;stroke-linecap:butt;stroke-linejoin:miter;stroke-opacity:1"
       d="m 139.09524,132.95833 c -22.7592,61.25362 -69.415568,61.25362 -69.415568,61.25362"
       id="path3730-3"
       inkscape:connector-curvature="0" />
    <path
       style="fill:none;stroke:#000000;stroke-width:0.26509973px;stroke-linecap:butt;stroke-linejoin:miter;stroke-opacity:1"
       d="m 69.679672,194.21195 c 51.208208,-61.25362 19.72464,-59.36308 19.72464,-59.36308"
       id="path3734-6"
       inkscape:connector-curvature="0" />
    <path
       style="fill:none;stroke:#000000;stroke-width:0.26458332px;stroke-linecap:butt;stroke-linejoin:miter;stroke-opacity:1"
       d="m 69.925594,134.84821 19.478718,5.3e-4"
       id="path3754"
       inkscape:connector-curvature="0" />
    <path
       style="fill:none;stroke:#000000;stroke-width:0.26458332px;stroke-linecap:butt;stroke-linejoin:miter;stroke-opacity:1"
       d="m 119.44048,132.95833 h 19.65476"
       id="path3756"
       inkscape:connector-curvature="0" />
    <path
       style="stroke-width:0.37797621"
       d="m 70.648795,193.69593 c 0,-0.14719 0.820272,-1.22621 1.822829,-2.39782 11.26363,-13.1629 22.385289,-30.534 25.376002,-39.63519 2.612624,-7.95061 1.441741,-13.7093 -3.257873,-16.02297 -1.783712,-0.87813 -2.108975,-0.90347 -13.037222,-1.01559 l -11.207869,-0.115 1.546783,-3.85375 c 3.801605,-9.47157 9.953173,-20.12757 16.061042,-27.82163 11.767103,-14.822961 28.482743,-25.295208 44.982883,-28.181492 6.03983,-1.056519 5.99891,-1.38516 0.65688,5.274762 -15.14608,18.882693 -24.01191,34.99634 -24.01191,43.64166 0,4.15267 1.85968,7.2687 5.29167,8.86661 1.58158,0.73637 2.47429,0.80064 12.72605,0.9161 l 11.02516,0.12417 -1.50992,3.65559 c -11.28557,27.32298 -29.65495,46.23439 -52.101411,53.6388 -5.903833,1.9475 -14.363094,3.67064 -14.363094,2.92575 z"
       id="path3758"
       inkscape:connector-curvature="0" />
    <ellipse
       id="path3764"
       cx="108.29012"
       cy="131.06845"
       rx="89.769341"
       ry="89.958336"
       style="fill:#ffd42a;stroke-width:0.26458332" />
  </g>
  <g
     inkscape:groupmode="layer"
     id="layer2"
     inkscape:label="Layer 2"
     transform="translate(-18.520782,-41.110115)">
    <path
       style="fill:#000000;stroke-width:0.37797621"
       d="m 71.494361,192.85319 c 0.321615,-0.36381 2.431569,-2.97643 4.68879,-5.80584 10.146527,-12.71858 19.301013,-27.5927 21.917152,-35.61079 1.388737,-4.25628 1.501878,-9.87132 0.246216,-12.21943 -1.089568,-2.03752 -3.181721,-3.73911 -5.232146,-4.25541 -0.926198,-0.23322 -5.448684,-0.42349 -10.443223,-0.43938 -4.845257,-0.0154 -9.52273,-0.14297 -10.394387,-0.28348 l -1.58483,-0.25547 1.499672,-3.59077 C 77.208483,118.38033 84.986103,105.98321 92.763496,97.602115 103.07259,86.492801 118.96008,77.381143 132.12813,75.026053 c 1.83897,-0.328898 3.72628,-0.680863 4.19403,-0.782143 0.54632,-0.118293 0.85044,-0.0052 0.85044,0.316119 0,0.275143 -2.11108,3.187417 -4.6913,6.471719 -10.9698,13.963234 -18.53309,26.262282 -21.63807,35.186762 -0.88905,2.55534 -1.05373,3.64306 -1.06297,7.02075 -0.0104,3.7981 0.046,4.08905 1.13299,5.84864 0.7091,1.14783 1.84589,2.2857 2.99064,2.99344 l 1.84672,1.14175 11.09207,0.22576 c 6.10064,0.12416 11.16643,0.30012 11.25731,0.391 0.2647,0.2647 -3.56392,8.78599 -6.30745,14.03835 -10.86216,20.79513 -27.1735,35.84378 -45.926528,42.37128 -4.178753,1.45452 -11.784105,3.26516 -13.71491,3.26516 -1.153155,0 -1.199885,-0.0471 -0.656741,-0.66145 z"
       id="path3778"
       inkscape:connector-curvature="0" />
  </g>
</svg>
